<svg width="56" height="56" viewBox="0 0 56 56" fill="none" xmlns="http://www.w3.org/2000/svg">
<g clip-path="url(#clip0_12_210)">
<path d="M28 55.9995C43.464 55.9995 56 43.4635 56 27.9995C56 12.5355 43.464 -0.000488281 28 -0.000488281C12.536 -0.000488281 0 12.5355 0 27.9995C0 43.4635 12.536 55.9995 28 55.9995Z" fill="#007AB9"/>
<path d="M44.7297 30.2526V41.7964H38.037V31.0262C38.037 28.3219 37.0706 26.4752 34.6474 26.4752C32.7981 26.4752 31.6995 27.7185 31.2144 28.9224C31.0382 29.3526 30.9928 29.9501 30.9928 30.5535V41.7959H24.2995C24.2995 41.7959 24.3893 23.5548 24.2995 21.6666H30.9933V24.5191C30.9798 24.5416 30.9608 24.5635 30.9489 24.585H30.9933V24.5191C31.8827 23.1505 33.4689 21.1939 37.0252 21.1939C41.4285 21.1939 44.7297 24.0709 44.7297 30.2526ZM17.2977 11.9636C15.0083 11.9636 13.5104 13.4664 13.5104 15.441C13.5104 17.3736 14.9648 18.9199 17.2099 18.9199H17.2533C19.5877 18.9199 21.0392 17.3736 21.0392 15.441C20.9948 13.4664 19.5877 11.9636 17.2977 11.9636ZM13.9082 41.7964H20.599V21.6666H13.9082V41.7964Z" fill="#F1F2F2"/>
</g>
<defs>
<clipPath id="clip0_12_210">
<rect width="56" height="56" fill="white"/>
</clipPath>
</defs>
</svg>
