<svg width="56" height="56" viewBox="0 0 56 56" fill="none" xmlns="http://www.w3.org/2000/svg">
<g clip-path="url(#clip0_12_202)">
<path d="M28 56C43.464 56 56 43.464 56 28C56 12.536 43.464 0 28 0C12.536 0 0 12.536 0 28C0 43.464 12.536 56 28 56Z" fill="#0A3FC7"/>
<path d="M27.9934 29.3825L13.2344 22.0193V36.6493C13.2364 37.391 13.5319 38.1018 14.0564 38.6262C14.5808 39.1507 15.2916 39.4462 16.0333 39.4483H39.9667C40.7084 39.4462 41.4192 39.1507 41.9436 38.6262C42.4681 38.1018 42.7636 37.391 42.7656 36.6493V22.1736L27.9934 29.3825Z" fill="white"/>
<path d="M28.0066 26.6175L42.7656 19.414V19.3506C42.7636 18.6089 42.4681 17.8982 41.9436 17.3737C41.4192 16.8493 40.7084 16.5537 39.9667 16.5517H16.0333C15.3086 16.5531 14.6126 16.8348 14.091 17.3377C13.5693 17.8407 13.2623 18.5259 13.2344 19.25L28.0066 26.6175Z" fill="white"/>
</g>
<defs>
<clipPath id="clip0_12_202">
<rect width="56" height="56" fill="white"/>
</clipPath>
</defs>
</svg>
